#!OML:ASF F:\VICON\USERDATA\INSTALL\rory3\rory3.ASF
:FULLY-SPECIFIED
:DEGREES
38
root -1.019119103396424 17.486047328408684 3.447465344222608 5.561149228659723 -6.449035320591272 -1.9971765477414687
lfemur 0.1766741869518107 2.3415818417395378 -19.36772713263622
ltibia 53.55866566323825
lfoot 9.136015051458477 -9.87265698122658
ltoes -19.30322961582539
rfemur -34.868460273681286 4.41098889776104 28.684888141706104
rtibia 57.86654375478446
rfoot -1.605502056636157 -5.551749236909576
rtoes 3.8767921527887914
lowerback 15.406864266941836 -0.2187787531375086 -0.5150825153938623
upperback -0.9385637585261469 -0.2888497613412587 2.321663026322208
thorax -9.455865231462775 -0.047364055049547604 2.5981631246966677
lowerneck -20.390439358523803 -2.5177000389938176 -2.0675291187839444
upperneck 14.155609272269468 -3.1833445032675827 2.7092650007892685
head 7.82490391913707 -1.2872737531336134 0.9216696205014414
lclavicle -6.477657499655498e-16 -4.8606873571935565e-15
lhumerus -34.11599619311249 -15.635597151713686 95.19557828122771
lradius 122.05848098806493
lwrist 36.751210012067695
lhand -30.63857342054267 1.0193414685530087
lfingers 7.125019999999998
lthumb -4.501977694022505 30.645695145640524
rclavicle -6.477657500114796e-16 -4.86068735722544e-15
rhumerus -53.833220886696544 11.13850822695984 -101.59438824730516
rradius 114.75012878505515
rwrist -19.730220829242853
rhand -18.490380240234487 37.757932159524316
rfingers 7.125019999999998
rthumb 8.21479451956514 8.799875290235903
39
root -0.9786372604228956 17.71217431109349 3.953334996447258 5.538073717859736 -6.857994516652942 -2.042102336493442
lfemur -0.4011198358473145 2.0387880029824705 -19.146726753405726
ltibia 57.22253675275578
lfoot 14.551780756470102 -11.854518925715027
ltoes -20.468938003789056
rfemur -32.87896384486962 5.005082793866668 29.274822590552958
rtibia 49.4082181881499
rfoot 0.38007760671037083 -4.926609009695852
rtoes 2.3320140994420715
lowerback 14.94199564370959 -0.166492581133435 -0.1407063252282601
upperback -1.0772851642355556 -0.12377684510095988 2.5649288994075485
thorax -9.339365858126357 0.014554497451366277 2.5623432649865547
lowerneck -19.981175232161007 -2.463189931970621 -2.1263483819856566
upperneck 14.938319093490518 -3.0560889942935314 2.3761774181389144
head 7.99227916847534 -1.2580795096402948 0.8355063912470115
lclavicle -6.477657499663518e-16 -4.860687357194132e-15
lhumerus -35.28236396368045 -15.82953373399089 95.21619724442677
lradius 122.66067570206593
lwrist 36.01430974546375
lhand -30.00025014380887 0.5036705379773383
lfingers 7.125019999999998
lthumb -3.8886083981410047 30.137678670093106
rclavicle -6.477657500204872e-16 -4.86068735723178e-15
rhumerus -55.11206574254546 11.015251978931728 -101.07357848054367
rradius 115.84387453480315
rwrist -19.49905044773659
rhand -18.545303971474798 37.856300999994545
rfingers 7.125019999999998
rthumb 8.194959845952331 9.551384321816286
40
root -0.9148584080981006 17.945237385250614 5.707146087706438 5.506070686856594 -6.711046047215975 -1.881029579963526
lfemur -0.4499707777176276 1.5827217160737748 -19.320044602762596
ltibia 60.6008757286057
lfoot 18.163277604997692 -12.709422290344722
ltoes -20.126843474922644
rfemur -30.94204331328283 5.138452027501565 29.317306198858827
rtibia 41.49323211783391
rfoot 3.576367148272667 -4.613972262062893
rtoes 0.9200785340488677
lowerback 14.429177561715598 -0.1377091904457558 0.1549641004543516
upperback -1.200600341010834 0.0121520263076339 2.704373120791642
thorax -9.25067288843831 0.07798100157331939 2.4471225247893456
lowerneck -19.581231633641785 -2.4235938358854945 -2.158972139861703
upperneck 15.538538871803823 -2.9511379822489907 2.046556404203269
head 8.113342477936408 -1.2424988692080217 0.7413844790171925
lclavicle -6.477657499727712e-16 -4.860687357198676e-15
lhumerus -36.33796805108262 -16.267605712934426 95.43193202374574
lradius 122.85769680198965
lwrist 35.62896092372351
lhand -29.71729335800285 0.24514106060507132
lfingers 7.125019999999998
lthumb -3.6329242475366965 29.863049765072713
rclavicle -6.477657500211863e-16 -4.8606873572322864e-15
rhumerus -56.35951910662862 10.832105723105013 -100.45687182538339
rradius 117.02237194490156
rwrist -19.51120911332087
rhand -18.52136022631678 38.02907108692643
rfingers 7.125019999999998
rthumb 8.304800243370575 10.01579834430659
41
root -0.8460774157320995 18.15315940029799 7.071237258608929 5.3999578809236075 -6.17715012741409 -1.6127038866570647
lfemur -0.35036163830375244 0.9393894973308732 -19.802853314564256
ltibia 63.700796590121485
lfoot 20.029035284520504 -12.39121055221996
ltoes -19.392606009416557
rfemur -29.257798210817356 4.933547099110489 29.0532213058904
rtibia 34.71930765506971
rfoot 7.303766997400568 -4.854952726477507
rtoes -0.38661123159492217
lowerback 13.961774909979749 -0.12293334509391018 0.38835951903374255
upperback -1.2567842426146514 0.09929055355645078 2.741119468263025
thorax -9.043238676252406 0.12014432002969094 2.337928815304942
lowerneck -19.443187174760578 -2.4639195709250963 -2.19045062205023
upperneck 15.914051151186072 -2.9731797892071112 1.766996321364057
head 8.244015455499465 -1.271232347215184 0.6419594311597723
lclavicle -6.477657499744687e-16 -4.860687357199866e-15
lhumerus -37.26109157528118 -16.81314449450718 95.83596555434347
lradius 122.58436250574347
lwrist 35.215438169912545
lhand -29.74109520718184 -0.06030441735790029
lfingers 7.125019999999998
lthumb -3.6502805434422343 29.529785324068254
rclavicle -6.477657500096384e-16 -4.8606873572241186e-15
rhumerus -57.44534216649204 10.54072208231652 -99.7449994014108
rradius 118.17434361852474
rwrist -19.247511931081995
rhand -18.508369794228 37.74007914288593
rfingers 7.125019999999998
rthumb 8.168866831634311 9.283091004170496
42
root -0.7988930525041223 18.315953885002884 7.859055721273865 5.388661626042313 -5.612882837257435 -1.457810071489763
lfemur -0.5390743601620009 0.2961256096036041 -20.294651342549724
ltibia 66.9274924445313
lfoot 20.44139041065435 -11.781537628192032
ltoes -18.7041289638434
rfemur -27.746251048459424 4.699307339425272 28.8135989347577
rtibia 29.145453039146233
rfoot 11.00932391026858 -5.266131556331584
rtoes -0.21636385619545973
lowerback 13.5355290435892 -0.10046641381074206 0.6338211894691808
upperback -1.2997606121575183 0.17992928513587025 2.686803844025576
thorax -9.043777764575887 0.15608265833380214 2.200767330843814
lowerneck -19.299068966886527 -2.509600848053547 -2.1918380115211433
upperneck 15.838023527276897 -3.0147711077715758 1.5945863022324174
head 8.246491575982015 -1.3014911408671135 0.5734561169944888
lclavicle -6.477657499674769e-16 -4.860687357194983e-15
lhumerus -38.01999047736489 -17.592048824222626 96.3361327058617
lradius 121.95483056847607
lwrist 34.30142916049428
lhand -30.269782018963607 0.10371207164034137
lfingers 7.125019999999998
lthumb -4.222244957941253 29.619571246048782
rclavicle -6.477657500083614e-16 -4.860687357223213e-15
rhumerus -58.22239756340069 10.14697538717781 -99.07966328013391
rradius 119.18900762034865
rwrist -18.507225803989762
rhand -18.446279439863915 37.58228422752384
rfingers 7.125019999999998
rthumb 8.342051688855156 9.167166182926756
